<?xml version="1.0" standalone="no"?><!DOCTYPE svg PUBLIC "-//W3C//DTD SVG 1.1//EN" "http://www.w3.org/Graphics/SVG/1.1/DTD/svg11.dtd"><svg t="1735789714849" class="icon" viewBox="0 0 1024 1024" version="1.1" xmlns="http://www.w3.org/2000/svg" p-id="1851" xmlns:xlink="http://www.w3.org/1999/xlink" width="200" height="200"><path d="M86.13 0h851.74c44.66 0 82.94 38.28 82.94 86.13v851.74c0 47.85-38.28 86.13-86.13 86.13H86.13C38.28 1020.81 0 982.53 0 934.68V86.13C0 38.28 38.28 0 86.13 0z" fill="#108EE9" p-id="1852" data-spm-anchor-id="a313x.search_index.0.i2.2fc03a81m4PDgt" class="selected"></path><path d="M564.636 628.436c-15.95-12.76-35.09-22.33-51.041-31.9-31.9-15.95-44.66-12.76-44.66-25.52s12.76-22.33 22.33-35.09c15.95-25.521 15.95-51.041 15.95-63.801 0-66.991-54.23-76.561-66.99-76.561h-6.38c-12.76 0-66.991 9.57-66.991 76.56 0 12.76 0 41.471 15.95 63.801 9.57 12.76 22.33 22.33 22.33 35.09 0 12.76-12.76 9.57-44.66 25.52-15.95 9.57-38.28 19.141-54.231 31.901v3.19l258.393-3.19z m146.74-178.642l130.792-114.84h38.28v379.613h-38.28L711.377 583.776V449.794z m-507.214-137.17h465.745c12.76 0 22.33 9.57 22.33 22.33v360.473c0 12.76-9.57 22.33-22.33 22.33H204.162c-12.76 0-22.33-9.57-22.33-22.33V334.953c0-12.76 9.57-22.33 22.33-22.33z" fill="#FFFFFF" p-id="1853" data-spm-anchor-id="a313x.search_index.0.i1.2fc03a81m4PDgt" class=""></path></svg>